<?xml version="1.0" standalone="no"?><!DOCTYPE svg PUBLIC "-//W3C//DTD SVG 1.1//EN" "http://www.w3.org/Graphics/SVG/1.1/DTD/svg11.dtd"><svg t="1514648421061" class="icon" style="" viewBox="0 0 1024 1024" version="1.1" xmlns="http://www.w3.org/2000/svg" p-id="1750" xmlns:xlink="http://www.w3.org/1999/xlink" width="200" height="200"><defs><style type="text/css"></style></defs><path d="M588.038503 702.329691v63.016119l110.60849-110.640324h-62.952451a47.703791 47.703791 0 0 0-47.656039 47.624205z" fill="#cdcdcd" p-id="1751"></path><path d="M669.025119 237.08641H349.742387a47.703791 47.703791 0 0 0-47.640122 47.640122V733.988964a47.671957 47.671957 0 0 0 47.640122 47.624205h204.647195V695.469386c0-36.275255 39.856621-76.131876 76.131877-76.131876h86.111948V284.742449a47.671957 47.671957 0 0 0-47.608288-47.656039zM523.255576 670.001896h-149.255405v-39.792952h149.255405v39.792952z m0-93.831781h-149.255405v-39.792952h149.255405v39.792952z m121.479925-93.815864H373.984254V442.545381h270.751247v39.80887z m0-93.831782H373.984254v-39.808869h270.751247v39.808869z" fill="#cdcdcd" p-id="1752"></path><path d="M509.391712 0c-281.320256 0-509.349789 228.045451-509.34979 509.349789s228.045451 509.349789 509.34979 509.34979c281.272504 0 509.317955-228.045451 509.317955-509.34979s-228.045451-509.349789-509.317955-509.349789zM751.619371 648.35453c0 0.461598-0.222841 0.875445-0.286509 1.273375s-0.127337 0.811776-0.254675 1.209706a9.550309 9.550309 0 0 1-2.355743 4.440893l-163.246607 163.310276a9.343385 9.343385 0 0 1-4.440894 2.355743 4.791071 4.791071 0 0 1-1.209706 0.254675c-0.366095 0.031834-0.779942 0.222841-1.24154 0.22284H337.836336a70.767786 70.767786 0 0 1-70.704118-70.6882V267.981658a70.799621 70.799621 0 0 1 70.704118-70.688201h343.094835a70.767786 70.767786 0 0 1 70.6882 70.688201V648.35453z" fill="#cdcdcd" p-id="1753"></path></svg>