<?xml version="1.0" standalone="no"?><!DOCTYPE svg PUBLIC "-//W3C//DTD SVG 1.1//EN" "http://www.w3.org/Graphics/SVG/1.1/DTD/svg11.dtd"><svg t="1514648887295" class="icon" style="" viewBox="0 0 1024 1024" version="1.1" xmlns="http://www.w3.org/2000/svg" p-id="11047" data-spm-anchor-id="a313x.7781069.0.i14" xmlns:xlink="http://www.w3.org/1999/xlink" width="200" height="200"><defs><style type="text/css"></style></defs><path d="M512 1024C229.2736 1024 0 794.7264 0 512 0 229.1712 229.2736 0 512 0s512 229.1712 512 512c0 282.7264-229.2736 512-512 512z m302.2848-576.8192L752.3328 391.168V268.0832c0-28.3648-22.8352-51.5072-50.9952-51.5072-28.16 0-50.9952 23.1424-50.9952 51.5072v31.0272l-98.304-88.7808c-12.288-12.3904-28.5696-19.2512-45.9776-19.2512-17.1008 0-33.6896 6.7584-45.3632 18.6368l-0.2048 0.2048-263.2704 237.7728c-12.1856 12.3904-18.944 28.8768-18.8416 46.3872 0.1024 17.6128 6.9632 34.2016 19.3536 46.7968l61.2352 56.1152v184.0128c0 36.1472 29.184 65.6384 65.024 65.6384h363.52c35.84 0 65.024-29.3888 65.024-65.6384V596.8896l62.5664-56.6272c12.1856-12.3904 18.944-28.8768 18.8416-46.3872-0.3072-17.5104-7.168-34.0992-19.6608-46.6944z m-25.9072 78.9504l-61.8496 55.9104c-1.7408 1.6384-2.7648 3.8912-2.7648 6.3488v178.688c0 24.8832-20.0704 45.1584-44.7488 45.1584H333.7216c-24.6784 0-44.7488-20.2752-44.7488-45.1584V588.3904c0-2.3552-1.024-4.7104-2.7648-6.2464l-60.7232-55.7056c-17.408-17.6128-17.7152-46.08-0.512-63.3856l0.2048-0.2048 250.0608-225.792c8.3968-8.4992 19.6608-13.1072 31.5392-13.1072 12.0832 0 23.1424 4.7104 32.0512 13.6192l113.7664 97.28c2.3552 2.1504 12.288 3.584 15.4624 2.1504 3.584-1.6384 7.9872-7.0656 7.9872-9.8304v-0.2048l2.6624-50.5856c0-15.4624 3.8912-25.7024 22.7328-25.7024 22.3232 0 22.3232 19.7632 22.3232 29.184V399.36c-0.4096 2.7648 0.6144 5.632 2.6624 7.4752l61.6448 55.6032c17.408 17.6128 17.7152 46.08 0.512 63.3856l-0.2048 0.3072z m-369.8688-60.416c-15.4624 0-27.9552 12.5952-27.9552 28.2624s12.4928 28.2624 27.9552 28.2624c15.4624 0 27.9552-12.5952 27.9552-28.2624s-12.5952-28.2624-27.9552-28.2624z m181.6576 0c-15.4624 0-27.9552 12.5952-27.9552 28.2624S584.704 522.24 600.1664 522.24c15.4624 0 27.9552-12.5952 27.9552-28.2624s-12.4928-28.2624-27.9552-28.2624z m39.936 131.9936c-7.0656-2.56-14.9504 1.1264-17.5104 8.192-17.2032 47.7184-62.6688 79.872-113.0496 79.872s-95.744-32.0512-113.0496-79.872c-2.56-7.168-10.4448-10.8544-17.5104-8.192-7.0656 2.56-10.752 10.5472-8.192 17.7152 21.1968 58.5728 76.9024 97.9968 138.6496 97.9968 61.7472 0 117.5552-39.424 138.6496-97.9968 2.7648-7.168-0.9216-15.0528-7.9872-17.7152z" fill="#FF329A" p-id="11048" data-spm-anchor-id="a313x.7781069.0.i12" class=""></path></svg>