<?xml version="1.0" standalone="no"?><!DOCTYPE svg PUBLIC "-//W3C//DTD SVG 1.1//EN" "http://www.w3.org/Graphics/SVG/1.1/DTD/svg11.dtd"><svg t="1514649029115" class="icon" style="" viewBox="0 0 1024 1024" version="1.1" xmlns="http://www.w3.org/2000/svg" p-id="16919" xmlns:xlink="http://www.w3.org/1999/xlink" width="200" height="200"><defs><style type="text/css"></style></defs><path d="M512 1024C229.239467 1024 0 794.760533 0 512 0 229.239467 229.239467 0 512 0c282.760533 0 512 229.239467 512 512 0 282.760533-229.239467 512-512 512z m-1.365333-819.2c-95.061333 0-172.100267 77.5168-172.100267 173.1584 0 95.607467 77.038933 173.124267 172.100267 173.124267 95.061333 0 172.100267-77.5168 172.100266-173.124267C682.734933 282.3168 605.696 204.8 510.634667 204.8z m0 375.0912c-168.925867 0-305.834667 67.549867-305.834667 150.903467 0 28.501333 26.043733 39.492267 102.638933 47.8208C366.660267 785.066667 437.3504 785.066667 512 785.066667c76.458667 0 152.2688 0 205.6192-6.4512 75.434667-9.1136 101.5808-19.319467 101.5808-47.8208 0-83.3536-139.6736-150.903467-308.565333-150.903467zM512 716.8c-72.840533 0-141.653333 0-197.188267-6.0416a620.305067 620.305067 0 0 1-25.736533-3.242667c31.9488-26.862933 110.318933-59.357867 221.559467-59.357866 116.189867 0 191.624533 33.348267 223.266133 59.392-6.792533 1.024-14.882133 2.1504-24.4736 3.310933C660.1728 716.8 584.840533 716.8 512 716.8z m-1.365333-233.984c-57.275733 0-103.8336-47.035733-103.8336-104.8576C406.801067 320.1024 453.358933 273.066667 510.634667 273.066667c57.2416 0 103.8336 47.035733 103.8336 104.891733 0 57.821867-46.592 104.8576-103.8336 104.8576z" p-id="16920" fill="#8a8a8a"></path></svg>