<?xml version="1.0" standalone="no"?><!DOCTYPE svg PUBLIC "-//W3C//DTD SVG 1.1//EN" "http://www.w3.org/Graphics/SVG/1.1/DTD/svg11.dtd"><svg t="1514648772913" class="icon" style="" viewBox="0 0 1024 1024" version="1.1" xmlns="http://www.w3.org/2000/svg" p-id="4746" xmlns:xlink="http://www.w3.org/1999/xlink" width="200" height="200"><defs><style type="text/css"></style></defs><path d="M571.600896 511.833088c-10.99776 0-21.00224 9.00096-21.00224 21.00224 0 8.00768 10.00448 19.00544 21.00224 19.00544 15.0016 0 25.99936-10.00448 25.99936-19.00544C597.600256 520.834048 586.602496 511.833088 571.600896 511.833088L571.600896 511.833088zM504.600576 413.836288c15.99488 0 25.99936-9.99424 25.99936-25.99936 4.99712-33.00352-56.00256-33.00352-56.00256 0 0 13.0048 7.00416 22.00576 22.00576 25.00608C499.593216 413.836288 502.593536 413.836288 504.600576 413.836288L504.600576 413.836288zM512.598016 66.833408c-246.99904-0.99328-444.99968 201.00096-446.0032 444.99968 0 164.00384 89.00608 307.00544 220.99968 385.00352 164.00384 103.99744 412.99968 68.99712 540.0064-70.00064 106.99776-106.99776 157.99296-274.00192 114.00192-432.9984C889.593856 203.834368 718.596096 66.833408 512.598016 66.833408L512.598016 66.833408zM428.599296 624.841728c-25.00608 0-44.00128-4.00384-71.99744-12.00128l-73.00096 36.99712 21.00224-62.0032c-55.00928-38.99392-82.00192-84.992-82.00192-137.99424 0-48.9984 19.99872-89.99936 59.99616-123.00288 39.99744-33.9968 88.99584-50.9952 146.00192-50.9952 99.9936 0 190.0032 58.99264 205.99808 143.99488-7.00416-1.9968-12.99456-3.00032-18.9952-3.00032-98.00704 0-175.0016 76.00128-175.0016 164.00384 0 15.0016 1.9968 27.99616 6.00064 42.99776-2.00704 1.00352-4.00384 1.00352-6.00064 1.00352l-6.00064 0L428.599296 624.841728zM730.597376 695.835648l15.0016 51.99872-54.99904-30.99648c-35.00032 7.00416-56.00256 10.99776-63.00672 10.99776-96.99328 0-173.99808-67.00032-173.99808-149.00224 0-41.99424 16.9984-76.99456 50.00192-105.99424 33.9968-28.99968 74.99776-44.00128 123.99616-44.00128 92.0064 0 175.0016 67.00032 175.0016 149.99552C802.594816 622.834688 774.598656 663.835648 730.597376 695.835648L730.597376 695.835648zM360.595456 362.841088c-15.99488 0-30.99648 9.99424-30.99648 24.99584 0 16.00512 15.99488 25.99936 30.99648 25.99936s25.99936-9.99424 25.99936-25.99936C383.594496 372.835328 374.593536 364.837888 360.595456 362.841088L360.595456 362.841088zM685.602816 511.833088c-12.00128 0-21.00224 9.00096-21.00224 21.00224 0 9.00096 9.99424 19.00544 21.00224 19.00544 12.99456 0 24.99584-10.00448 24.99584-19.00544C705.601536 521.837568 697.593856 514.833408 685.602816 511.833088z" p-id="4747" fill="#707070"></path></svg>